<mxfile host="app.diagrams.net" modified="2023-05-16T20:27:10.909Z" agent="Mozilla/5.0 (Windows NT 10.0; Win64; x64) AppleWebKit/537.36 (KHTML, like Gecko) Chrome/113.0.0.0 Safari/537.36" etag="np5MxkYllLlmwd98aZs7" version="21.2.1" type="device">
  <diagram name="Page-1" id="rYArsk_LXDxzUvItLkv1">
    <mxGraphModel dx="1596" dy="800" grid="1" gridSize="10" guides="1" tooltips="1" connect="1" arrows="1" fold="1" page="1" pageScale="1" pageWidth="850" pageHeight="1100" math="0" shadow="0">
      <root>
        <mxCell id="0" />
        <mxCell id="1" parent="0" />
        <mxCell id="n0ujp4S9aQulKVIz28L4-4" value="" style="rounded=0;whiteSpace=wrap;html=1;fillColor=none;" vertex="1" parent="1">
          <mxGeometry x="350" y="130" width="490" height="420" as="geometry" />
        </mxCell>
        <mxCell id="n0ujp4S9aQulKVIz28L4-5" value="Proxmox" style="text;html=1;align=center;verticalAlign=middle;resizable=0;points=[];autosize=1;strokeColor=none;fillColor=none;" vertex="1" parent="1">
          <mxGeometry x="380" y="140" width="70" height="30" as="geometry" />
        </mxCell>
        <mxCell id="n0ujp4S9aQulKVIz28L4-16" style="edgeStyle=orthogonalEdgeStyle;rounded=0;orthogonalLoop=1;jettySize=auto;html=1;entryX=0.012;entryY=0.432;entryDx=0;entryDy=0;entryPerimeter=0;" edge="1" parent="1" source="n0ujp4S9aQulKVIz28L4-12" target="n0ujp4S9aQulKVIz28L4-32">
          <mxGeometry relative="1" as="geometry" />
        </mxCell>
        <mxCell id="n0ujp4S9aQulKVIz28L4-19" style="edgeStyle=orthogonalEdgeStyle;rounded=0;orthogonalLoop=1;jettySize=auto;html=1;exitX=1;exitY=1;exitDx=0;exitDy=0;exitPerimeter=0;entryX=-0.001;entryY=0.349;entryDx=0;entryDy=0;entryPerimeter=0;" edge="1" parent="1" source="n0ujp4S9aQulKVIz28L4-12" target="n0ujp4S9aQulKVIz28L4-17">
          <mxGeometry relative="1" as="geometry" />
        </mxCell>
        <mxCell id="n0ujp4S9aQulKVIz28L4-12" value="" style="sketch=0;aspect=fixed;pointerEvents=1;shadow=0;dashed=0;html=1;strokeColor=none;labelPosition=center;verticalLabelPosition=bottom;verticalAlign=top;align=center;fillColor=#00188D;shape=mxgraph.mscae.enterprise.firewall" vertex="1" parent="1">
          <mxGeometry x="370" y="330" width="50" height="44" as="geometry" />
        </mxCell>
        <mxCell id="n0ujp4S9aQulKVIz28L4-13" value="VM pfsense" style="text;html=1;align=center;verticalAlign=middle;resizable=0;points=[];autosize=1;strokeColor=none;fillColor=none;" vertex="1" parent="1">
          <mxGeometry x="350" y="290" width="90" height="30" as="geometry" />
        </mxCell>
        <mxCell id="n0ujp4S9aQulKVIz28L4-14" value="" style="image;sketch=0;aspect=fixed;html=1;points=[];align=center;fontSize=12;image=img/lib/mscae/VirtualMachineWindows.svg;" vertex="1" parent="1">
          <mxGeometry x="620" y="210" width="50" height="46" as="geometry" />
        </mxCell>
        <mxCell id="n0ujp4S9aQulKVIz28L4-17" value="" style="image;sketch=0;aspect=fixed;html=1;points=[];align=center;fontSize=12;image=img/lib/mscae/VirtualMachineWindows.svg;" vertex="1" parent="1">
          <mxGeometry x="520" y="460" width="50" height="46" as="geometry" />
        </mxCell>
        <mxCell id="n0ujp4S9aQulKVIz28L4-20" value="VM servweb" style="text;html=1;align=center;verticalAlign=middle;resizable=0;points=[];autosize=1;strokeColor=none;fillColor=none;" vertex="1" parent="1">
          <mxGeometry x="595" y="170" width="90" height="30" as="geometry" />
        </mxCell>
        <mxCell id="n0ujp4S9aQulKVIz28L4-21" value="" style="rounded=1;whiteSpace=wrap;html=1;fillColor=none;" vertex="1" parent="1">
          <mxGeometry x="680" y="140" width="150" height="210" as="geometry" />
        </mxCell>
        <mxCell id="n0ujp4S9aQulKVIz28L4-22" value="" style="shape=image;html=1;verticalAlign=top;verticalLabelPosition=bottom;labelBackgroundColor=#ffffff;imageAspect=0;aspect=fixed;image=https://cdn1.iconfinder.com/data/icons/unicons-line-vol-3/24/docker-128.png" vertex="1" parent="1">
          <mxGeometry x="691" y="160" width="60" height="60" as="geometry" />
        </mxCell>
        <mxCell id="n0ujp4S9aQulKVIz28L4-23" value="" style="shape=image;html=1;verticalAlign=top;verticalLabelPosition=bottom;labelBackgroundColor=#ffffff;imageAspect=0;aspect=fixed;image=https://cdn1.iconfinder.com/data/icons/unicons-line-vol-3/24/docker-128.png" vertex="1" parent="1">
          <mxGeometry x="760" y="160" width="60" height="60" as="geometry" />
        </mxCell>
        <mxCell id="n0ujp4S9aQulKVIz28L4-24" value="" style="shape=image;html=1;verticalAlign=top;verticalLabelPosition=bottom;labelBackgroundColor=#ffffff;imageAspect=0;aspect=fixed;image=https://cdn1.iconfinder.com/data/icons/unicons-line-vol-3/24/docker-128.png" vertex="1" parent="1">
          <mxGeometry x="691" y="240" width="60" height="60" as="geometry" />
        </mxCell>
        <mxCell id="n0ujp4S9aQulKVIz28L4-25" value="Authelia" style="text;html=1;align=center;verticalAlign=middle;resizable=0;points=[];autosize=1;strokeColor=none;fillColor=none;" vertex="1" parent="1">
          <mxGeometry x="680" y="290" width="70" height="30" as="geometry" />
        </mxCell>
        <mxCell id="n0ujp4S9aQulKVIz28L4-26" value="traefik" style="text;html=1;align=center;verticalAlign=middle;resizable=0;points=[];autosize=1;strokeColor=none;fillColor=none;" vertex="1" parent="1">
          <mxGeometry x="685" y="210" width="60" height="30" as="geometry" />
        </mxCell>
        <mxCell id="n0ujp4S9aQulKVIz28L4-27" value="nextcloud" style="text;html=1;align=center;verticalAlign=middle;resizable=0;points=[];autosize=1;strokeColor=none;fillColor=none;" vertex="1" parent="1">
          <mxGeometry x="755" y="218" width="70" height="30" as="geometry" />
        </mxCell>
        <mxCell id="n0ujp4S9aQulKVIz28L4-28" value="VM Serveur AD" style="text;html=1;align=center;verticalAlign=middle;resizable=0;points=[];autosize=1;strokeColor=none;fillColor=none;" vertex="1" parent="1">
          <mxGeometry x="490" y="430" width="110" height="30" as="geometry" />
        </mxCell>
        <mxCell id="n0ujp4S9aQulKVIz28L4-30" value="VM serveur Mail" style="text;html=1;align=center;verticalAlign=middle;resizable=0;points=[];autosize=1;strokeColor=none;fillColor=none;" vertex="1" parent="1">
          <mxGeometry x="510" y="260" width="110" height="30" as="geometry" />
        </mxCell>
        <mxCell id="n0ujp4S9aQulKVIz28L4-32" value="" style="image;sketch=0;aspect=fixed;html=1;points=[];align=center;fontSize=12;image=img/lib/mscae/VirtualMachineWindows.svg;" vertex="1" parent="1">
          <mxGeometry x="545" y="210" width="50" height="46" as="geometry" />
        </mxCell>
        <mxCell id="n0ujp4S9aQulKVIz28L4-35" style="edgeStyle=orthogonalEdgeStyle;rounded=0;orthogonalLoop=1;jettySize=auto;html=1;entryX=0;entryY=0.5;entryDx=0;entryDy=0;entryPerimeter=0;" edge="1" parent="1" source="n0ujp4S9aQulKVIz28L4-34" target="n0ujp4S9aQulKVIz28L4-12">
          <mxGeometry relative="1" as="geometry" />
        </mxCell>
        <mxCell id="n0ujp4S9aQulKVIz28L4-34" value="" style="image;html=1;image=img/lib/clip_art/networking/Router_Icon_128x128.png" vertex="1" parent="1">
          <mxGeometry x="200" y="327" width="50" height="50" as="geometry" />
        </mxCell>
        <mxCell id="n0ujp4S9aQulKVIz28L4-36" value="Box internet" style="text;html=1;align=center;verticalAlign=middle;resizable=0;points=[];autosize=1;strokeColor=none;fillColor=none;" vertex="1" parent="1">
          <mxGeometry x="180" y="290" width="90" height="30" as="geometry" />
        </mxCell>
        <mxCell id="n0ujp4S9aQulKVIz28L4-39" style="edgeStyle=orthogonalEdgeStyle;rounded=0;orthogonalLoop=1;jettySize=auto;html=1;" edge="1" parent="1" source="n0ujp4S9aQulKVIz28L4-37" target="n0ujp4S9aQulKVIz28L4-34">
          <mxGeometry relative="1" as="geometry" />
        </mxCell>
        <mxCell id="n0ujp4S9aQulKVIz28L4-37" value="" style="fontColor=#0066CC;verticalAlign=top;verticalLabelPosition=bottom;labelPosition=center;align=center;html=1;outlineConnect=0;fillColor=#CCCCCC;strokeColor=#6881B3;gradientColor=none;gradientDirection=north;strokeWidth=2;shape=mxgraph.networks.server_storage;" vertex="1" parent="1">
          <mxGeometry x="30" y="319.5" width="50" height="65" as="geometry" />
        </mxCell>
        <mxCell id="n0ujp4S9aQulKVIz28L4-38" value="NAS&amp;nbsp;" style="text;html=1;align=center;verticalAlign=middle;resizable=0;points=[];autosize=1;strokeColor=none;fillColor=none;" vertex="1" parent="1">
          <mxGeometry x="30" y="390" width="50" height="30" as="geometry" />
        </mxCell>
        <mxCell id="n0ujp4S9aQulKVIz28L4-40" value="" style="shape=filledEdge;curved=0;rounded=0;fixDash=1;endArrow=none;strokeWidth=10;fillColor=#ffffff;edgeStyle=orthogonalEdgeStyle;html=1;exitX=0.5;exitY=1;exitDx=0;exitDy=0;entryX=0.5;entryY=1;entryDx=0;entryDy=0;entryPerimeter=0;" edge="1" parent="1" source="n0ujp4S9aQulKVIz28L4-34" target="n0ujp4S9aQulKVIz28L4-12">
          <mxGeometry width="60" height="40" relative="1" as="geometry">
            <mxPoint x="270" y="530" as="sourcePoint" />
            <mxPoint x="330" y="490" as="targetPoint" />
            <Array as="points">
              <mxPoint x="225" y="500" />
              <mxPoint x="395" y="500" />
            </Array>
          </mxGeometry>
        </mxCell>
        <mxCell id="n0ujp4S9aQulKVIz28L4-41" value="Tunnel OpenVPN" style="text;html=1;align=center;verticalAlign=middle;resizable=0;points=[];autosize=1;strokeColor=none;fillColor=none;" vertex="1" parent="1">
          <mxGeometry x="250" y="460" width="120" height="30" as="geometry" />
        </mxCell>
      </root>
    </mxGraphModel>
  </diagram>
</mxfile>
